<?xml version="1.0" encoding="UTF-8"?>
<svg width="32" height="32" viewBox="0 0 32 32" xmlns="http://www.w3.org/2000/svg">
  <!-- Chess Knight in a clean, modern style -->
  <rect width="32" height="32" rx="4" fill="#1a1a1a"/>
  <path d="M8 26h16v2c0 1-1 2-2 2H10c-1 0-2-1-2-2v-2z" fill="#8B7355"/>
  <path d="M9 24h14c1 0 1-1 1-1s0-1-1-1H9c-1 0-1 1-1 1s0 1 1 1z" fill="#A0916C"/>
  <path d="M11 22h10c0-1-1-3-2-5-1-2-2-3-3-4-1-1-1-2-1-3 0-1 1-2 2-2h1c1 0 2 1 2 2v1h1c0-2-1-4-3-4h-1c-2 0-4 1-4 3 0 2 1 3 2 4 1 1 2 2 2 4 0 1-1 2-2 2h-4c-1 0-2 1-2 2z" fill="#E8DCC0"/>
  <circle cx="18" cy="10" r="1.5" fill="#1a1a1a"/>
  <path d="M14 15c0 0 1 0 2-1s2-1 3 0" stroke="#1a1a1a" stroke-width="0.5" fill="none"/>
</svg> 